<svg width="32" height="33" viewBox="0 0 32 33" fill="#A0A0A8" xmlns="http://www.w3.org/2000/svg">
<path fill-rule="evenodd" clip-rule="evenodd" d="M0 6.5106C0 4.78388 0.674284 3.12788 1.87452 1.90691C3.07475 0.685936 4.70261 0 6.4 0H25.6C27.2974 0 28.9252 0.685936 30.1255 1.90691C31.3257 3.12788 32 4.78388 32 6.5106V26.0424C32 27.7691 31.3257 29.4251 30.1255 30.6461C28.9252 31.8671 27.2974 32.553 25.6 32.553H6.4C4.70261 32.553 3.07475 31.8671 1.87452 30.6461C0.674284 29.4251 0 27.7691 0 26.0424V6.5106ZM6.4 3.2553C5.55131 3.2553 4.73737 3.59827 4.13726 4.20875C3.53714 4.81924 3.2 5.64724 3.2 6.5106V26.0424C3.2 26.9058 3.53714 27.7338 4.13726 28.3442C4.73737 28.9547 5.55131 29.2977 6.4 29.2977H16V17.9041H14.4C13.9757 17.9041 13.5687 17.7327 13.2686 17.4274C12.9686 17.1222 12.8 16.7082 12.8 16.2765C12.8 15.8448 12.9686 15.4308 13.2686 15.1256C13.5687 14.8203 13.9757 14.6488 14.4 14.6488H16V12.2074C16 10.6965 16.59 9.2475 17.6402 8.17915C18.6904 7.11079 20.1148 6.5106 21.6 6.5106H22.56C22.9843 6.5106 23.3913 6.68208 23.6914 6.98733C23.9914 7.29257 24.16 7.70657 24.16 8.13825C24.16 8.56993 23.9914 8.98393 23.6914 9.28917C23.3913 9.59441 22.9843 9.7659 22.56 9.7659H21.6C21.2848 9.7659 20.9727 9.82905 20.6816 9.95174C20.3904 10.0744 20.1258 10.2543 19.9029 10.481C19.6801 10.7077 19.5033 10.9768 19.3827 11.2731C19.2621 11.5693 19.2 11.8868 19.2 12.2074V14.6488H22.56C22.9843 14.6488 23.3913 14.8203 23.6914 15.1256C23.9914 15.4308 24.16 15.8448 24.16 16.2765C24.16 16.7082 23.9914 17.1222 23.6914 17.4274C23.3913 17.7327 22.9843 17.9041 22.56 17.9041H19.2V29.2977H25.6C26.4487 29.2977 27.2626 28.9547 27.8627 28.3442C28.4629 27.7338 28.8 26.9058 28.8 26.0424V6.5106C28.8 5.64724 28.4629 4.81924 27.8627 4.20875C27.2626 3.59827 26.4487 3.2553 25.6 3.2553H6.4Z" />
</svg>
