<svg width="19" height="16" viewBox="0 0 19 16" fill="#252734" xmlns="http://www.w3.org/2000/svg">
<path fill-rule="evenodd" clip-rule="evenodd" d="M7.38889 4C7.38889 3.44772 7.86148 3 8.44444 3L17.9444 3C18.5274 3 19 3.44771 19 4C19 4.55228 18.5274 5 17.9444 5H8.44444C7.86148 5 7.38889 4.55228 7.38889 4Z"/>
<path fill-rule="evenodd" clip-rule="evenodd" d="M0 12C-8.86784e-08 11.4477 0.472588 11 1.05556 11L11.6111 11C12.1941 11 12.6667 11.4477 12.6667 12C12.6667 12.5523 12.1941 13 11.6111 13L1.05556 13C0.472588 13 8.86784e-08 12.5523 0 12Z"/>
<path fill-rule="evenodd" clip-rule="evenodd" d="M6.33333 4C6.33333 2.89543 5.38816 2 4.22222 2C3.05629 2 2.11111 2.89543 2.11111 4C2.11111 5.10457 3.05629 6 4.22222 6C5.38816 6 6.33333 5.10457 6.33333 4ZM4.22222 0C6.55409 9.65646e-08 8.44444 1.79086 8.44444 4C8.44444 6.20914 6.55409 8 4.22222 8C1.89035 8 3.07937e-07 6.20914 4.09866e-07 4C5.11796e-07 1.79086 1.89035 -9.65645e-08 4.22222 0Z"/>
<path fill-rule="evenodd" clip-rule="evenodd" d="M16.8889 12C16.8889 10.8954 15.9437 10 14.7778 10C13.6118 10 12.6667 10.8954 12.6667 12C12.6667 13.1046 13.6118 14 14.7778 14C15.9437 14 16.8889 13.1046 16.8889 12ZM14.7778 8C17.1096 8 19 9.79086 19 12C19 14.2091 17.1096 16 14.7778 16C12.4459 16 10.5556 14.2091 10.5556 12C10.5556 9.79086 12.4459 8 14.7778 8Z" />
</svg>
