<svg width="32" height="33" viewBox="0 0 32 33" fill="#A0A0A8" xmlns="http://www.w3.org/2000/svg">
<path d="M25.4131 0H6.5869C2.96411 0 0 3.01533 0 6.70073V25.8523C0 29.5377 2.96411 32.553 6.5869 32.553H25.4131C29.0359 32.553 32 29.5377 32 25.8523V6.70073C32 3.01533 29.0359 0 25.4131 0ZM14.1728 29.2124V25.7057C14.1714 24.8597 14.3691 24.5973 14.6957 24.1645C14.8013 24.0235 14.9221 23.8644 15.0456 23.6717C15.2844 23.3004 15.3214 22.8355 15.143 22.4279C14.9632 22.0217 14.5982 21.7397 14.166 21.6755C10.9315 21.1841 9.67177 19.5159 9.18461 18.2023C8.53416 16.4489 8.87585 14.2656 10.0148 12.8919C10.2701 12.5862 10.502 12.0264 10.3126 11.4596C10.1287 10.8971 10.1123 10.0441 10.1809 9.49829C10.7202 9.66581 11.2691 10.005 11.8866 10.3847C11.9319 10.4127 11.9744 10.4392 12.017 10.4671C12.4396 10.7337 12.876 11.0101 13.5498 10.8259C14.4871 10.5676 15.4339 10.4294 16.352 10.4168C17.2796 10.4294 18.2265 10.5662 19.1665 10.8259C19.8362 11.0087 20.2945 10.7212 20.6993 10.4657C20.7405 10.4392 20.7831 10.4127 20.8283 10.3847C21.4445 10.0036 21.9934 9.66581 22.5327 9.49829C22.6013 10.0427 22.5848 10.8915 22.4037 11.4499C22.2116 12.025 22.4298 12.5722 22.696 12.8905C23.835 14.2642 24.1767 16.4489 23.5262 18.2023C23.0391 19.5159 21.7807 21.1841 18.5449 21.6741C18.1126 21.7397 17.7476 22.0217 17.5678 22.4279C17.3894 22.8341 17.4251 23.299 17.6653 23.6703C17.7888 23.863 17.9095 24.0221 18.0152 24.1617C18.3432 24.5959 18.5408 24.8569 18.5394 25.7057V29.218C18.5394 29.2585 18.5435 29.2989 18.5462 29.3394H14.1646C14.1673 29.2989 14.1728 29.2557 14.1728 29.2124ZM28.8438 25.8523C28.8438 27.7773 27.3055 29.3422 25.4131 29.3422H21.1042L21.0973 29.2361C21.0973 29.2278 21.0959 29.2194 21.0959 29.211V25.7099C21.0973 24.9812 20.9944 24.3655 20.7762 23.8127C23.308 22.9933 25.081 21.3781 25.9181 19.1194C26.8307 16.6569 26.4615 13.7491 24.9822 11.6509C25.1963 10.5076 25.2388 8.53785 24.4868 7.52855C24.1163 7.03018 23.5893 6.77193 23.0048 6.79566C21.6215 6.86127 20.5745 7.50482 19.467 8.18746L19.4259 8.21258C18.4104 7.9641 17.3853 7.83148 16.3835 7.81892C16.3657 7.81892 16.3492 7.81892 16.3424 7.81892C15.331 7.83148 14.3046 7.9641 13.2891 8.21258L13.2397 8.18187C12.1844 7.53274 11.0948 6.85987 9.71019 6.79566C9.12835 6.76914 8.6014 7.02879 8.22814 7.52855C7.47751 8.53645 7.51868 10.5062 7.73275 11.6495C6.25344 13.7477 5.8843 16.6569 6.79686 19.118C7.63395 21.3781 9.40692 22.9919 11.9401 23.8113C11.8207 24.1171 11.7357 24.4437 11.6821 24.7955C10.8876 25.0049 10.314 24.755 9.88722 24.0235C9.00759 22.5186 7.671 21.6936 6.30833 21.8109C5.6071 21.8723 5.08564 22.5033 5.14602 23.2166C5.17484 23.5628 5.33539 23.8769 5.5975 24.1003C5.8596 24.3237 6.19032 24.4298 6.52927 24.4004C6.90664 24.3669 7.40066 24.8527 7.69158 25.3511C8.57944 26.8727 9.99151 27.6168 11.619 27.4395V29.204C11.619 29.2138 11.6177 29.2236 11.6177 29.2319L11.6108 29.3408H6.5869C4.69454 29.3408 3.15622 27.7745 3.15622 25.8509V6.70073C3.15622 4.77567 4.69454 3.21077 6.5869 3.21077H25.4131C27.3055 3.21077 28.8438 4.77567 28.8438 6.70073V25.8523Z"/>
</svg>
