<svg width="32" height="33" viewBox="0 0 32 33" fill="#A0A0A8" xmlns="http://www.w3.org/2000/svg">
<path fill-rule="evenodd" clip-rule="evenodd" d="M6.4 0C4.70261 0 3.07475 0.685936 1.87452 1.90691C0.674284 3.12788 0 4.78388 0 6.5106V26.0424C0 27.7691 0.674284 29.4251 1.87452 30.6461C3.07475 31.8671 4.70261 32.553 6.4 32.553H25.6C27.2974 32.553 28.9252 31.8671 30.1255 30.6461C31.3257 29.4251 32 27.7691 32 26.0424V6.5106C32 4.78388 31.3257 3.12788 30.1255 1.90691C28.9252 0.685936 27.2974 0 25.6 0H6.4ZM3.2 6.5106C3.2 5.64724 3.53714 4.81924 4.13726 4.20875C4.73737 3.59827 5.55131 3.2553 6.4 3.2553H25.6C26.4487 3.2553 27.2626 3.59827 27.8627 4.20875C28.4629 4.81924 28.8 5.64724 28.8 6.5106V26.0424C28.8 26.9058 28.4629 27.7338 27.8627 28.3442C27.2626 28.9547 26.4487 29.2977 25.6 29.2977H6.4C5.55131 29.2977 4.73737 28.9547 4.13726 28.3442C3.53714 27.7338 3.2 26.9058 3.2 26.0424V6.5106ZM11.2 14.6488C11.2 14.2172 11.0314 13.8032 10.7314 13.4979C10.4313 13.1927 10.0243 13.0212 9.6 13.0212C9.17565 13.0212 8.76869 13.1927 8.46863 13.4979C8.16857 13.8032 8 14.2172 8 14.6488V24.4147C8 24.8464 8.16857 25.2604 8.46863 25.5657C8.76869 25.8709 9.17565 26.0424 9.6 26.0424C10.0243 26.0424 10.4313 25.8709 10.7314 25.5657C11.0314 25.2604 11.2 24.8464 11.2 24.4147V14.6488ZM12 8.95207C12 9.59959 11.7471 10.2206 11.2971 10.6785C10.847 11.1363 10.2365 11.3935 9.6 11.3935C8.96348 11.3935 8.35303 11.1363 7.90294 10.6785C7.45286 10.2206 7.2 9.59959 7.2 8.95207C7.2 8.30455 7.45286 7.68355 7.90294 7.22569C8.35303 6.76782 8.96348 6.5106 9.6 6.5106C10.2365 6.5106 10.847 6.76782 11.2971 7.22569C11.7471 7.68355 12 8.30455 12 8.95207V8.95207ZM16 13.0212C16.544 13.0212 17.024 13.2979 17.312 13.7178C18.1366 13.2606 19.0608 13.0211 20 13.0212C23.456 13.0212 25.6 16.1561 25.6 18.8335V24.4147C25.6 24.8464 25.4314 25.2604 25.1314 25.5657C24.8313 25.8709 24.4243 26.0424 24 26.0424C23.5757 26.0424 23.1687 25.8709 22.8686 25.5657C22.5686 25.2604 22.4 24.8464 22.4 24.4147V18.8319C22.4 17.5819 21.344 16.2749 20 16.2749C19.1616 16.2749 18.2352 16.7387 17.6 17.8423V24.4147C17.6 24.8464 17.4314 25.2604 17.1314 25.5657C16.8313 25.8709 16.4243 26.0424 16 26.0424C15.5757 26.0424 15.1687 25.8709 14.8686 25.5657C14.5686 25.2604 14.4 24.8464 14.4 24.4147V14.6488C14.4 14.2172 14.5686 13.8032 14.8686 13.4979C15.1687 13.1927 15.5757 13.0212 16 13.0212V13.0212Z"/>
</svg>
