<svg width="32" height="26" viewBox="0 0 32 26" fill="#A0A0A8" xmlns="http://www.w3.org/2000/svg">
<path fill-rule="evenodd" clip-rule="evenodd" d="M0.8704 1.85654C1.28 1.28413 1.82118 0.817075 2.44897 0.494179C3.07677 0.171284 3.77306 0.00186588 4.48 0H27.52C29.0176 0 30.3248 0.747066 31.1296 1.85654C31.6784 2.61632 32 3.55254 32 4.5571V20.8749C32 23.3371 30.048 25.432 27.52 25.432H4.48C1.952 25.432 0 23.3371 0 20.8749V4.5571C0 3.55254 0.32 2.61632 0.8704 1.85495V1.85654ZM4.6928 3.179L14.816 14.2499C14.966 14.4138 15.1488 14.5447 15.3526 14.6344C15.5565 14.724 15.777 14.7703 16 14.7703C16.223 14.7703 16.4435 14.724 16.6474 14.6344C16.8512 14.5447 17.034 14.4138 17.184 14.2499L27.3072 3.179H4.6928ZM28.8 6.27535L19.552 16.3878C19.1021 16.8795 18.5537 17.2724 17.9421 17.5412C17.3304 17.8101 16.6689 17.9489 16 17.9489C15.3311 17.9489 14.6696 17.8101 14.0579 17.5412C13.4463 17.2724 12.8979 16.8795 12.448 16.3878L3.2 6.27535V20.8749C3.2 21.6919 3.8272 22.253 4.48 22.253H27.52C28.1728 22.253 28.8 21.6919 28.8 20.8749V6.27535Z" />
</svg>
