<svg width="13" height="13" viewBox="0 0 13 13" fill="#A0A0A8" xmlns="http://www.w3.org/2000/svg">
<path d="M6.32004 0V1.86H9.42004L4.69004 6.59C4.33004 6.95 4.33004 7.54 4.69004 7.91C5.05004 8.27 5.64004 8.27 6.01004 7.91L10.74 3.18V6.28H12.6V0H6.32004Z"/>
<path d="M11.04 7.58C10.53 7.58 10.11 8.00001 10.11 8.51C10.11 9.12001 10.11 9.51001 10.08 9.81001C10.05 10.1 10.01 10.2 9.98 10.26C9.9 10.41 9.77 10.53 9.63 10.61C9.58 10.64 9.47 10.69 9.18 10.71C8.88 10.74 8.49 10.74 7.88 10.74H4.72C3.8 10.74 3.2 10.74 2.77 10.68C2.36 10.62 2.22 10.53 2.15 10.46C2.08 10.39 1.98 10.25 1.93 9.84C1.87 9.39 1.86 8.8 1.86 7.88V4.72C1.86 4.11 1.86 3.72 1.89 3.42C1.92 3.13 1.96 3.03001 1.99 2.97001C2.08 2.83001 2.2 2.71 2.34 2.62C2.4 2.59 2.5 2.55 2.79 2.52C3.09 2.49 3.48 2.49 4.09 2.49C4.6 2.49 5.02 2.07 5.02 1.56C5.02 1.05 4.6 0.630005 4.09 0.630005H4.05C3.49 0.630005 3.02 0.630005 2.62 0.670005C2.21 0.700005 1.8 0.790005 1.41 1.01C0.98 1.26 0.62 1.61 0.38 2.04C0.16 2.43 0.07 2.84 0.04 3.25C0 3.65 0 4.12 0 4.68V7.94C0 8.78 0 9.5 0.08 10.08C0.16 10.7 0.35 11.29 0.83 11.77C1.31 12.25 1.9 12.44 2.52 12.52C3.1 12.6 3.82 12.6 4.66 12.6H7.92C8.48 12.6 8.95 12.6 9.35 12.56C9.76 12.52 10.17 12.44 10.56 12.22C10.99 11.97 11.35 11.62 11.59 11.19C11.81 10.8 11.9 10.4 11.93 9.98C11.97 9.59 11.97 9.11 11.97 8.55V8.51C11.97 8.00001 11.55 7.58 11.04 7.58ZM10.24 10.41C10.16 10.54 10.06 10.65 9.94 10.75C10.05 10.65 10.16 10.54 10.24 10.41ZM9.65 10.92C9.7 10.9 9.74 10.89 9.77 10.87C9.74 10.89 9.7 10.9 9.65 10.92ZM9.44 10.98C9.37 10.99 9.3 11 9.21 11.01C9.3 11 9.37 10.99 9.44 10.98ZM9.61 10.94C9.58 10.95 9.54 10.96 9.49 10.97C9.54 10.96 9.58 10.95 9.61 10.94ZM1.68 2.95001C1.7 2.90001 1.71 2.86 1.73 2.83C1.71 2.86 1.7 2.90001 1.68 2.95001ZM1.63 3.11C1.64 3.07 1.65 3.03001 1.66 2.99001C1.65 3.02001 1.64 3.06 1.63 3.11ZM1.62 3.16001C1.61 3.23001 1.6 3.30001 1.59 3.39001C1.6 3.30001 1.61 3.23001 1.62 3.16001ZM1.86 2.66001C1.96 2.54001 2.07 2.44 2.2 2.36C2.06 2.44 1.95 2.55001 1.86 2.66001Z" />
</svg>
