<svg width="87" height="87" viewBox="0 0 87 87" fill="none" xmlns="http://www.w3.org/2000/svg">
<circle cx="43.5" cy="43.5" r="43.5" fill="#FFC25C"/>
<path d="M53.9897 44.8063C53.1819 43.9917 52.0917 43.536 50.9506 43.536H48.7306L68.7052 23.3997H59.7291C58.4016 23.3997 57.1305 23.9294 56.1985 24.875L30.7443 50.6108H46.9907C48.1318 50.6108 49.222 51.0665 50.0298 51.881L57.0119 58.9216H56.995H31.7894C26.9991 58.9216 21.4292 55.3387 19.5933 50.8785C15.4752 40.8587 22.7172 31.232 32.1453 31.232H38.1727C39.7374 31.232 41.2344 30.6054 42.3416 29.489L48.3747 23.3997H31.8459C22.9827 23.3997 14.9103 28.9194 11.9842 37.3612C6.71937 52.5361 17.8195 66.7483 32.1453 66.7483H64.7623H75.7551L53.9897 44.8063Z" fill="#252734"/>
</svg>
