<svg width="806" height="806" viewBox="0 0 806 806" fill="none" xmlns="http://www.w3.org/2000/svg">
<g filter="url(#filter0_d)">
<ellipse cx="291.03" cy="250.03" rx="100.453" ry="100.453" transform="rotate(15 291.03 250.03)" fill="#252734"/>
</g>
<g filter="url(#filter1_d)">
<circle cx="602.972" cy="343.972" r="87.3423" transform="rotate(15 602.972 343.972)" fill="#252734"/>
</g>
<g filter="url(#filter2_d)">
<circle cx="409.03" cy="546.03" r="76.7749" transform="rotate(75 409.03 546.03)" fill="#252734"/>
</g>
<g filter="url(#filter3_d)">
<circle cx="126" cy="405" r="38.3753" transform="rotate(75 126 405)" fill="#252734"/>
</g>
<g filter="url(#filter4_d)">
<circle cx="494.03" cy="119.03" r="41.6655" transform="rotate(15 494.03 119.03)" fill="#252734"/>
</g>
<g filter="url(#filter5_d)">
<circle cx="218.5" cy="578.5" r="43.6826" transform="rotate(15 218.5 578.5)" fill="#252734"/>
</g>
<circle opacity="0.2" cx="73.0191" cy="140.019" r="15.9785" transform="rotate(15 73.0191 140.019)" stroke="#424657" stroke-width="4"/>
<circle opacity="0.2" cx="272.019" cy="449.019" r="11.9693" transform="rotate(15 272.019 449.019)" stroke="#424657" stroke-width="6"/>
<circle cx="284.997" cy="49.5649" r="8.16653" transform="rotate(15 284.997 49.5649)" stroke="#424657" stroke-width="4"/>
<circle opacity="0.5" r="8.16653" transform="matrix(0.965926 0.258818 -0.25882 0.965926 793.451 309.451)" stroke="#424657" stroke-width="4"/>
<circle cx="710.451" cy="510.451" r="8.16653" transform="rotate(15 710.451 510.451)" stroke="#424657" stroke-width="4"/>
<circle opacity="0.5" r="7.21937" transform="matrix(0.965927 0.258816 -0.258822 0.965925 409.451 387.451)" fill="#424657"/>
<g filter="url(#filter6_d)">
<circle cx="640.5" cy="173.5" r="37.9671" transform="rotate(15 640.5 173.5)" fill="#252734"/>
</g>
<g filter="url(#filter7_d)">
<circle cx="621.028" cy="626.03" r="41.6655" transform="rotate(15 621.028 626.03)" fill="#252734"/>
</g>
<path d="M621 606C609.971 606 601 614.971 601 626C601 637.026 609.971 646 621 646C632.029 646 641 637.026 641 626C641 614.971 632.026 606 621 606ZM603.019 626C603.019 623.393 603.578 620.919 604.577 618.681L613.154 642.182C607.154 639.268 603.019 633.117 603.019 626ZM621 643.983C619.235 643.983 617.531 643.725 615.921 643.251L621.315 627.575L626.841 642.717C626.877 642.806 626.922 642.889 626.97 642.965C625.102 643.621 623.093 643.983 621 643.983ZM623.478 617.568C624.56 617.511 625.535 617.397 625.535 617.397C626.505 617.283 626.39 615.858 625.421 615.915C625.421 615.915 622.509 616.144 620.628 616.144C618.86 616.144 615.891 615.915 615.891 615.915C614.922 615.858 614.807 617.34 615.777 617.397C615.777 617.397 616.693 617.511 617.662 617.568L620.465 625.244L616.528 637.046L609.982 617.568C611.066 617.511 612.039 617.397 612.039 617.397C613.008 617.283 612.892 615.858 611.925 615.915C611.925 615.915 609.013 616.144 607.133 616.144C606.797 616.144 606.399 616.135 605.976 616.123C609.19 611.242 614.719 608.019 621 608.019C625.681 608.019 629.944 609.81 633.142 612.741C633.063 612.737 632.989 612.726 632.909 612.726C631.142 612.726 629.889 614.265 629.889 615.917C629.889 617.399 630.744 618.654 631.656 620.135C632.34 621.333 633.138 622.872 633.138 625.094C633.138 626.633 632.545 628.419 631.77 630.908L629.976 636.899L623.478 617.568ZM636.778 617.374C638.181 619.934 638.981 622.874 638.981 626C638.981 632.635 635.385 638.425 630.039 641.543L635.531 625.663C636.558 623.098 636.898 621.048 636.898 619.223C636.901 618.561 636.856 617.945 636.778 617.374Z" fill="#23769B"/>
<path d="M626 156L628.913 189.301L641.991 193.002L655.082 189.305L658 156H626ZM652.586 187.183L642.104 190.144V190.174L642.053 190.16L642.002 190.174V190.144L631.521 187.183L629.024 158.722H642H642.104H655.08L652.586 187.183Z" fill="#E35026"/>
<path d="M631.961 162.807L633.042 175.159H646.934L646.469 180.455L641.996 181.688L637.531 180.457L637.232 177.056H633.208L633.783 183.612L641.993 185.936L650.215 183.612L651.317 171.074H636.707L636.342 166.892H651.669H651.68L652.039 162.807H631.961Z" fill="#E35026"/>
<path d="M106 384L109.75 422.819L126 427L142.25 422.819L146 384H106ZM139.186 420.292L126.036 423.676L126.014 423.671L125.992 423.676L112.841 420.292L109.807 387.146H125.997H126.027H142.217L139.186 420.292Z" fill="#2062AF"/>
<path d="M113.914 396.582H126.664L125.986 396.85L114.355 401.479L114.74 406.064L125.986 406.098L132.013 406.116L131.626 412.226L125.986 413.744V413.739L125.94 413.749L120.492 412.436L120.16 408.643H120.143H115.088H115.071L115.733 415.964L125.986 418.861V418.856L126.003 418.861L136.202 416.017L137.524 401.479H125.986H125.956L125.986 401.468L137.946 396.582L138.443 391.893H113.308L113.914 396.582Z" fill="#2062AF"/>
<path d="M495.452 107.385L488.399 118.934L495.922 131.183C495.969 131.277 495.993 131.37 495.969 131.463C495.946 131.557 495.852 131.487 495.711 131.51H490.327C489.951 131.51 489.692 131.487 489.528 131.253C489.034 130.273 488.517 129.317 488.023 128.337C487.529 127.38 486.989 126.4 486.424 125.397C485.86 124.394 485.296 123.39 484.732 122.364H484.685C484.191 123.367 483.65 124.37 483.109 125.374C482.569 126.377 482.028 127.38 481.511 128.36C480.97 129.34 480.429 130.343 479.889 131.3C479.795 131.533 479.606 131.557 479.348 131.557H474.176C474.082 131.557 474.011 131.603 474.011 131.487C473.988 131.393 474.011 131.3 474.058 131.23L481.37 119.331L474.246 107.361C474.176 107.268 474.152 107.175 474.199 107.128C474.246 107.058 474.34 107.035 474.434 107.035H479.771C479.889 107.035 480.006 107.058 480.1 107.081C480.194 107.128 480.265 107.198 480.335 107.291C480.782 108.294 481.299 109.298 481.84 110.301C482.404 111.304 482.945 112.284 483.533 113.264C484.097 114.244 484.614 115.224 485.108 116.227H485.155C485.649 115.201 486.166 114.198 486.683 113.218C487.2 112.238 487.741 111.258 488.282 110.278C488.822 109.298 489.34 108.294 489.857 107.338C489.88 107.245 489.927 107.151 489.998 107.105C490.092 107.058 490.186 107.035 490.304 107.058H495.264C495.382 107.035 495.499 107.105 495.523 107.221C495.546 107.245 495.499 107.338 495.452 107.385Z" fill="#CB74AF"/>
<path d="M506.314 132C504.574 132.023 502.834 131.673 501.259 130.95C499.778 130.273 498.555 129.153 497.709 127.777C496.839 126.354 496.416 124.58 496.416 122.457C496.393 120.731 496.839 119.027 497.709 117.534C498.602 116.017 499.896 114.758 501.447 113.918C503.093 113.008 505.068 112.564 507.395 112.564C507.513 112.564 507.677 112.564 507.889 112.588C508.101 112.611 508.336 112.611 508.618 112.634V105.261C508.618 105.098 508.688 105.005 508.853 105.005H513.625C513.743 104.981 513.837 105.075 513.861 105.168V127.427C513.861 127.847 513.884 128.314 513.908 128.827C513.955 129.317 513.978 129.783 514.002 130.18C514.002 130.343 513.931 130.483 513.766 130.553C512.544 131.067 511.251 131.44 509.934 131.673C508.735 131.883 507.536 132 506.314 132ZM508.618 127.334V117.067C508.406 117.021 508.195 116.974 507.983 116.951C507.724 116.927 507.466 116.904 507.207 116.904C506.29 116.904 505.373 117.091 504.551 117.511C503.751 117.907 503.069 118.491 502.552 119.237C502.035 119.984 501.776 120.987 501.776 122.2C501.753 123.017 501.894 123.834 502.176 124.604C502.411 125.234 502.764 125.794 503.234 126.26C503.681 126.68 504.221 127.007 504.833 127.194C505.467 127.404 506.126 127.497 506.784 127.497C507.137 127.497 507.466 127.474 507.771 127.45C508.077 127.474 508.336 127.427 508.618 127.334Z" fill="#CB74AF"/>
<path d="M227.494 575.428C230.634 575.428 233.191 577.934 233.191 581.012C233.191 584.091 230.634 586.596 227.494 586.596C224.353 586.596 221.797 584.091 221.797 581.012C221.797 577.934 224.353 575.428 227.494 575.428ZM227.494 572.675C222.799 572.675 218.987 576.411 218.987 581.012C218.987 585.613 222.799 589.35 227.494 589.35C232.188 589.35 236 585.613 236 581.012C236 576.411 232.191 572.675 227.494 572.675Z" fill="#47B8E9"/>
<path d="M216.203 592.079V597.663C216.203 600.741 213.647 603.247 210.506 603.247C207.366 603.247 204.809 600.744 204.809 597.663C204.809 594.581 207.366 592.079 210.506 592.079H216.203ZM219.013 589.325H210.506C205.812 589.325 202 593.062 202 597.663C202 602.264 205.812 606 210.506 606C215.201 606 219.013 602.264 219.013 597.663V589.325Z" fill="#48BA7F"/>
<path d="M227.494 558.753C230.634 558.753 233.191 561.259 233.191 564.337C233.191 567.416 230.634 569.921 227.494 569.921H221.797V558.753H227.494ZM227.494 556H218.987V556.025V572.675H227.494C232.188 572.675 236 568.938 236 564.337C236 559.736 232.191 556 227.494 556Z" fill="#F37264"/>
<path d="M210.461 558.804H210.492H210.501H210.509H216.206V569.948H210.506C207.366 569.948 204.809 567.442 204.809 564.364C204.809 561.299 207.343 558.804 210.461 558.804ZM210.461 556.051C205.787 556.051 202 559.776 202 564.364C202 568.965 205.812 572.701 210.506 572.701H219.013V556.051H210.506C210.492 556.051 210.475 556.051 210.461 556.051Z" fill="#F05023"/>
<path d="M210.461 575.453H210.492H210.501H210.509H216.206V586.596H210.506C207.366 586.596 204.809 584.091 204.809 581.012C204.809 577.948 207.343 575.453 210.461 575.453ZM210.461 572.7C205.787 572.7 202 576.425 202 581.012C202 585.613 205.812 589.35 210.506 589.35H219.013V572.7H210.506C210.492 572.7 210.475 572.7 210.461 572.7Z" fill="#8162AA"/>
<path d="M637.462 301H568.538C565.478 301 563 303.478 563 306.538V375.462C563 378.522 565.478 381 568.538 381H637.462C640.522 381 643 378.522 643 375.462V306.538C643.005 303.478 640.522 301 637.462 301ZM636.537 374.537H569.468V307.468H636.537V374.537Z" fill="#FFC25C"/>
<path d="M591.166 369.497C597.823 369.497 602.39 365.954 602.39 358.168V332.495H594.873V358.058C594.873 361.815 593.315 362.785 590.843 362.785C588.265 362.785 587.191 361.014 586.011 358.919L579.887 362.626C581.658 366.382 585.151 369.497 591.166 369.497Z" fill="#FFC25C"/>
<path d="M620.004 362.84C616.297 362.84 614.202 360.904 612.59 358.277L606.47 361.82C608.669 366.168 613.182 369.502 620.163 369.502C627.307 369.502 632.621 365.795 632.621 359.028C632.621 352.745 629.024 349.953 622.631 347.212L620.75 346.406C617.526 345.008 616.133 344.097 616.133 341.838C616.133 340.012 617.531 338.614 619.73 338.614C621.879 338.614 623.272 339.525 624.561 341.838L630.417 338.077C627.949 333.728 624.511 332.062 619.73 332.062C613.018 332.062 608.719 336.36 608.719 341.998C608.719 348.122 612.316 351.018 617.74 353.327L619.62 354.133C623.058 355.635 625.098 356.551 625.098 359.128C625.108 361.282 623.118 362.84 620.004 362.84Z" fill="#FFC25C"/>
<path d="M423.74 561.079C426.657 560.776 428.866 558.229 428.768 555.169C428.669 552.114 426.156 549.667 423.137 549.667H422.935C419.818 549.766 417.407 552.418 417.506 555.577C417.604 557.104 418.208 558.428 419.116 559.348C415.699 566.174 410.47 571.164 402.63 575.343C397.303 578.194 391.775 579.214 386.242 578.502C381.72 577.89 378.2 575.855 375.986 572.492C372.77 567.502 372.466 562.099 375.181 556.701C377.091 552.83 380.105 549.975 382.015 548.552C381.613 547.228 381.009 544.985 380.709 543.358C366.133 554.054 367.64 568.522 372.064 575.348C375.382 580.442 382.118 583.601 389.556 583.601C391.569 583.601 393.577 583.397 395.59 582.89C408.457 580.333 418.208 572.592 423.74 561.079ZM441.43 548.448C433.79 539.378 422.528 534.388 409.661 534.388H408.05C407.147 532.552 405.237 531.333 403.126 531.333H402.925C399.807 531.433 397.397 534.084 397.495 537.243C397.593 540.298 400.107 542.746 403.126 542.746H403.327C405.537 542.646 407.451 541.218 408.252 539.283H410.063C417.702 539.283 424.944 541.526 431.478 545.905C436.505 549.268 440.124 553.646 442.136 558.945C443.845 563.223 443.747 567.402 441.935 570.965C439.122 576.363 434.394 579.318 428.164 579.318C424.143 579.318 420.323 578.094 418.311 577.179C417.206 578.198 415.193 579.826 413.789 580.845C418.114 582.885 422.533 584.005 426.759 584.005C436.411 584.005 443.55 578.606 446.265 573.204C449.172 567.293 448.971 557.104 441.43 548.448ZM390.361 562.811C390.46 565.866 392.973 568.313 395.992 568.313H396.194C399.311 568.214 401.722 565.562 401.623 562.403C401.525 559.348 399.011 556.901 395.992 556.901H395.791C395.59 556.901 395.29 556.901 395.089 557C390.965 550.075 389.256 542.533 389.86 534.383C390.263 528.269 392.271 522.975 395.791 518.592C398.707 514.821 404.338 512.99 408.158 512.886C418.816 512.682 423.338 526.13 423.638 531.528C424.944 531.832 427.158 532.548 428.665 533.055C427.457 516.557 417.403 508 407.755 508C398.707 508 390.366 514.622 387.047 524.403C382.422 537.443 385.437 549.975 391.068 559.856C390.563 560.567 390.263 561.691 390.361 562.811Z" fill="#7253A2"/>
<path d="M358 250.014C358 241.148 347.565 232.631 330.056 227.163C333.993 209.303 331.767 196.043 324.079 191.642C322.424 190.683 320.506 190.142 318.359 190.043V190H317.645C310.121 190 300.478 195.069 290.443 204.291C280.429 195.14 270.786 190.107 263.248 190.107L262.534 190.135V190.149C260.366 190.242 258.419 190.782 256.736 191.749C249.061 196.157 246.872 209.381 250.83 227.192C233.392 232.688 223 241.191 223 250.014C223 258.88 233.435 267.398 250.944 272.865C247.007 290.725 249.233 303.985 256.921 308.386C258.761 309.46 260.944 310 263.404 310C270.929 310 280.572 304.931 290.607 295.709C300.621 304.86 310.264 309.893 317.802 309.893C320.256 309.893 322.446 309.353 324.314 308.279C331.989 303.871 334.178 290.647 330.22 272.837C347.637 267.362 358 258.859 358 250.014ZM350.532 250.007C350.504 253.939 344.292 259.193 335.07 263.089C333.158 263.907 330.99 264.703 328.287 265.585C326.768 260.494 324.806 255.24 322.46 249.957C324.778 244.696 326.711 239.47 328.201 234.408C330.641 235.19 332.959 236.036 335.091 236.932C344.327 240.864 350.532 246.118 350.532 250.007ZM320.527 301.809C319.849 302.215 318.922 302.421 317.76 302.421C312.332 302.421 304.201 297.956 295.906 290.448C299.672 286.459 303.238 282.151 306.526 277.615C312.325 276.989 317.838 276.05 322.916 274.82C323.494 277.444 323.901 279.776 324.164 281.945C325.377 291.849 323.922 299.833 320.527 301.809ZM290.471 278.468C292.64 278.468 294.63 278.432 296.52 278.354C294.63 280.729 292.633 283.032 290.55 285.229C288.531 283.125 286.513 280.814 284.516 278.347C286.763 278.425 288.688 278.468 290.471 278.468ZM256.928 282.073C257.178 279.925 257.584 277.558 258.155 274.87C263.283 276.086 268.782 277.017 274.509 277.643C277.969 282.35 281.563 286.673 285.208 290.505C276.806 298.169 268.868 302.549 263.362 302.556C262.256 302.528 261.336 302.314 260.63 301.916C257.221 299.968 255.73 291.991 256.928 282.073ZM260.473 198.219C261.151 197.814 262.078 197.608 263.248 197.608L263.697 197.593C269.117 197.828 277.034 202.25 285.101 209.559C281.335 213.548 277.762 217.863 274.481 222.392C268.682 223.018 263.176 223.957 258.091 225.187C257.57 222.833 257.149 220.451 256.85 218.091C255.623 208.187 257.085 200.196 260.473 198.219ZM268.832 230.704C267.876 232.225 266.778 234.01 265.73 235.844C264.781 237.487 263.847 239.186 262.898 240.999C261.807 238.183 260.815 235.311 259.952 232.432C262.905 231.756 265.879 231.173 268.832 230.704ZM265.765 264.269C266.771 265.976 267.805 267.668 268.853 269.317C265.751 268.827 262.798 268.251 260.031 267.597C260.83 264.909 261.793 262.065 262.912 259.122C263.897 260.999 264.831 262.698 265.765 264.269ZM314.215 249.986C312.482 253.633 310.649 257.16 308.752 260.459C306.576 264.213 304.501 267.497 302.411 270.505C298.403 270.846 294.394 271.017 290.5 271.017C286.727 271.017 282.733 270.853 278.639 270.533C276.449 267.384 274.303 264.028 272.277 260.544C270.344 257.231 268.504 253.718 266.785 250.092C268.376 246.694 270.209 243.175 272.248 239.62C274.424 235.866 276.499 232.581 278.589 229.573C282.605 229.232 286.606 229.061 290.5 229.061C294.273 229.061 298.26 229.225 302.361 229.545C304.551 232.695 306.697 236.05 308.723 239.534C310.649 242.847 312.496 246.36 314.215 249.986ZM315.213 235.759C314.165 233.939 313.074 232.19 312.125 230.704C315.221 231.194 318.18 231.77 320.941 232.424C320.142 235.119 319.179 237.956 318.059 240.899C317.082 239.03 316.141 237.337 315.213 235.759ZM312.146 269.325C313.102 267.81 314.193 266.026 315.249 264.184C316.155 262.613 317.068 260.942 318.081 259.008C319.172 261.824 320.163 264.696 321.026 267.576C318.145 268.258 315.163 268.841 312.146 269.325ZM324.072 217.963C323.822 220.117 323.416 222.478 322.845 225.165C317.717 223.95 312.218 223.018 306.491 222.392C303.039 217.693 299.437 213.37 295.792 209.531C303.823 202.2 311.44 197.871 316.904 197.508H317.617C318.715 197.508 319.614 197.707 320.363 198.119C323.779 200.068 325.27 208.038 324.072 217.963ZM284.452 221.681C286.335 219.314 288.339 217.01 290.422 214.806C292.44 216.918 294.466 219.221 296.455 221.689C294.216 221.603 292.29 221.561 290.5 221.561C288.332 221.568 286.342 221.603 284.452 221.681ZM258.519 250.071C256.201 255.332 254.268 260.558 252.77 265.62C250.302 264.831 247.999 263.985 245.909 263.096C236.673 259.172 230.468 253.91 230.468 250.014C230.468 246.09 236.673 240.835 245.909 236.932C247.82 236.114 249.989 235.311 252.692 234.437C254.218 239.534 256.172 244.788 258.519 250.071Z" fill="#70CFF0"/>
<path d="M290.471 236.904C283.218 236.904 277.312 242.783 277.312 250.021C277.312 257.259 283.211 263.139 290.471 263.139C297.732 263.139 303.631 257.259 303.631 250.021C303.631 242.783 297.725 236.904 290.471 236.904Z" fill="#70CFF0"/>
<defs>
<filter id="filter0_d" x="118" y="108" width="442.059" height="442.059" filterUnits="userSpaceOnUse" color-interpolation-filters="sRGB">
<feFlood flood-opacity="0" result="BackgroundImageFix"/>
<feColorMatrix in="SourceAlpha" type="matrix" values="0 0 0 0 0 0 0 0 0 0 0 0 0 0 0 0 0 0 127 0"/>
<feOffset dx="48" dy="79"/>
<feGaussianBlur stdDeviation="49"/>
<feColorMatrix type="matrix" values="0 0 0 0 0 0 0 0 0 0 0 0 0 0 0 0 0 0 0.3 0"/>
<feBlend mode="normal" in2="BackgroundImageFix" result="effect1_dropShadow"/>
<feBlend mode="normal" in="SourceGraphic" in2="effect1_dropShadow" result="shape"/>
</filter>
<filter id="filter1_d" x="345" y="228" width="409.944" height="409.944" filterUnits="userSpaceOnUse" color-interpolation-filters="sRGB">
<feFlood flood-opacity="0" result="BackgroundImageFix"/>
<feColorMatrix in="SourceAlpha" type="matrix" values="0 0 0 0 0 0 0 0 0 0 0 0 0 0 0 0 0 0 127 0"/>
<feOffset dx="-53" dy="89"/>
<feGaussianBlur stdDeviation="49"/>
<feColorMatrix type="matrix" values="0 0 0 0 0 0 0 0 0 0 0 0 0 0 0 0 0 0 0.3 0"/>
<feBlend mode="normal" in2="BackgroundImageFix" result="effect1_dropShadow"/>
<feBlend mode="normal" in="SourceGraphic" in2="effect1_dropShadow" result="shape"/>
</filter>
<filter id="filter2_d" x="206" y="415" width="384.059" height="384.059" filterUnits="userSpaceOnUse" color-interpolation-filters="sRGB">
<feFlood flood-opacity="0" result="BackgroundImageFix"/>
<feColorMatrix in="SourceAlpha" type="matrix" values="0 0 0 0 0 0 0 0 0 0 0 0 0 0 0 0 0 0 127 0"/>
<feOffset dx="-11" dy="61"/>
<feGaussianBlur stdDeviation="49"/>
<feColorMatrix type="matrix" values="0 0 0 0 0 0 0 0 0 0 0 0 0 0 0 0 0 0 0.3 0"/>
<feBlend mode="normal" in2="BackgroundImageFix" result="effect1_dropShadow"/>
<feBlend mode="normal" in="SourceGraphic" in2="effect1_dropShadow" result="shape"/>
</filter>
<filter id="filter3_d" x="0" y="290" width="290" height="290" filterUnits="userSpaceOnUse" color-interpolation-filters="sRGB">
<feFlood flood-opacity="0" result="BackgroundImageFix"/>
<feColorMatrix in="SourceAlpha" type="matrix" values="0 0 0 0 0 0 0 0 0 0 0 0 0 0 0 0 0 0 127 0"/>
<feOffset dx="19" dy="30"/>
<feGaussianBlur stdDeviation="49"/>
<feColorMatrix type="matrix" values="0 0 0 0 0 0 0 0 0 0 0 0 0 0 0 0 0 0 0.3 0"/>
<feBlend mode="normal" in2="BackgroundImageFix" result="effect1_dropShadow"/>
<feBlend mode="normal" in="SourceGraphic" in2="effect1_dropShadow" result="shape"/>
</filter>
<filter id="filter4_d" x="364" y="0" width="298.059" height="298.059" filterUnits="userSpaceOnUse" color-interpolation-filters="sRGB">
<feFlood flood-opacity="0" result="BackgroundImageFix"/>
<feColorMatrix in="SourceAlpha" type="matrix" values="0 0 0 0 0 0 0 0 0 0 0 0 0 0 0 0 0 0 127 0"/>
<feOffset dx="19" dy="30"/>
<feGaussianBlur stdDeviation="49"/>
<feColorMatrix type="matrix" values="0 0 0 0 0 0 0 0 0 0 0 0 0 0 0 0 0 0 0.3 0"/>
<feBlend mode="normal" in2="BackgroundImageFix" result="effect1_dropShadow"/>
<feBlend mode="normal" in="SourceGraphic" in2="effect1_dropShadow" result="shape"/>
</filter>
<filter id="filter5_d" x="86" y="457" width="303" height="303" filterUnits="userSpaceOnUse" color-interpolation-filters="sRGB">
<feFlood flood-opacity="0" result="BackgroundImageFix"/>
<feColorMatrix in="SourceAlpha" type="matrix" values="0 0 0 0 0 0 0 0 0 0 0 0 0 0 0 0 0 0 127 0"/>
<feOffset dx="19" dy="30"/>
<feGaussianBlur stdDeviation="49"/>
<feColorMatrix type="matrix" values="0 0 0 0 0 0 0 0 0 0 0 0 0 0 0 0 0 0 0.3 0"/>
<feBlend mode="normal" in2="BackgroundImageFix" result="effect1_dropShadow"/>
<feBlend mode="normal" in="SourceGraphic" in2="effect1_dropShadow" result="shape"/>
</filter>
<filter id="filter6_d" x="515" y="59" width="289" height="289" filterUnits="userSpaceOnUse" color-interpolation-filters="sRGB">
<feFlood flood-opacity="0" result="BackgroundImageFix"/>
<feColorMatrix in="SourceAlpha" type="matrix" values="0 0 0 0 0 0 0 0 0 0 0 0 0 0 0 0 0 0 127 0"/>
<feOffset dx="19" dy="30"/>
<feGaussianBlur stdDeviation="49"/>
<feColorMatrix type="matrix" values="0 0 0 0 0 0 0 0 0 0 0 0 0 0 0 0 0 0 0.3 0"/>
<feBlend mode="normal" in2="BackgroundImageFix" result="effect1_dropShadow"/>
<feBlend mode="normal" in="SourceGraphic" in2="effect1_dropShadow" result="shape"/>
</filter>
<filter id="filter7_d" x="490.998" y="507" width="298.059" height="298.059" filterUnits="userSpaceOnUse" color-interpolation-filters="sRGB">
<feFlood flood-opacity="0" result="BackgroundImageFix"/>
<feColorMatrix in="SourceAlpha" type="matrix" values="0 0 0 0 0 0 0 0 0 0 0 0 0 0 0 0 0 0 127 0"/>
<feOffset dx="19" dy="30"/>
<feGaussianBlur stdDeviation="49"/>
<feColorMatrix type="matrix" values="0 0 0 0 0 0 0 0 0 0 0 0 0 0 0 0 0 0 0.3 0"/>
<feBlend mode="normal" in2="BackgroundImageFix" result="effect1_dropShadow"/>
<feBlend mode="normal" in="SourceGraphic" in2="effect1_dropShadow" result="shape"/>
</filter>
</defs>
</svg>
