<svg width="333" height="497" viewBox="0 0 333 519" xmlns="http://www.w3.org/2000/svg" fill="#333647">
<path d="M0 10C0 4.47716 4.47715 0 10 0H323C328.523 0 333 4.47715 333 10V240H0V10Z" />
<path d="M22 479.5C22 469.835 29.835 462 39.5 462H118.5C128.165 462 136 469.835 136 479.5C136 489.165 128.165 497 118.5 497H39.5C29.835 497 22 489.165 22 479.5Z" />
<path d="M144 479.5C144 469.835 151.835 462 161.5 462H240.5C250.165 462 258 469.835 258 479.5C258 489.165 250.165 497 240.5 497H161.5C151.835 497 144 489.165 144 479.5Z" />
<path d="M22 347C22 340.373 27.3726 335 34 335H58C64.6274 335 70 340.373 70 347C70 353.627 64.6274 359 58 359H34C27.3726 359 22 353.627 22 347Z" />
<path d="M22 409C22 402.373 27.3726 397 34 397H58C64.6274 397 70 402.373 70 409C70 415.627 64.6274 421 58 421H34C27.3726 421 22 415.627 22 409Z" />
<path d="M75 347C75 340.373 80.3726 335 87 335H111C117.627 335 123 340.373 123 347C123 353.627 117.627 359 111 359H87C80.3726 359 75 353.627 75 347Z" />
<path d="M75 409C75 402.373 80.3726 397 87 397H111C117.627 397 123 402.373 123 409C123 415.627 117.627 421 111 421H87C80.3726 421 75 415.627 75 409Z" />
<path d="M128 346.5C128 340.149 133.149 335 139.5 335H254.5C260.851 335 266 340.149 266 346.5V347.5C266 353.851 260.851 359 254.5 359H139.5C133.149 359 128 353.851 128 347.5V346.5Z" />
<path d="M19 274.5C19 268.149 24.1487 263 30.5 263H281.5C287.851 263 293 268.149 293 274.5V275.5C293 281.851 287.851 287 281.5 287H30.5C24.1487 287 19 281.851 19 275.5V274.5Z" />
<path d="M19 310.5C19 304.149 24.1487 299 30.5 299H281.5C287.851 299 293 304.149 293 310.5V311.5C293 317.851 287.851 323 281.5 323H30.5C24.1487 323 19 317.851 19 311.5V310.5Z" />
<path d="M21 378C21 371.373 26.3726 366 33 366H60C66.6274 366 72 371.373 72 378C72 384.627 66.6274 390 60 390H33C26.3726 390 21 384.627 21 378Z" />
<path d="M77 378C77 371.373 82.3726 366 89 366H169C175.627 366 181 371.373 181 378C181 384.627 175.627 390 169 390H89C82.3726 390 77 384.627 77 378Z" />
<path d="M186 378C186 371.373 191.373 366 198 366H278C284.627 366 290 371.373 290 378C290 384.627 284.627 390 278 390H198C191.373 390 186 384.627 186 378Z" />
</svg>
